<svg xmlns="http://www.w3.org/2000/svg" version="1.1" xmlns:xlink="http://www.w3.org/1999/xlink" xmlns:svgjs="http://svgjs.dev/svgjs" viewBox="0 0 800 800" opacity="1"><defs><linearGradient gradientTransform="rotate(270)" x1="50%" y1="0%" x2="50%" y2="100%" id="sssquiggly-grad"><stop stop-color="hsl(205, 69%, 60%)" stop-opacity="1" offset="0%"></stop><stop stop-color="hsl(205, 69%, 80%)" stop-opacity="1" offset="100%"></stop></linearGradient></defs><g stroke-width="0.5" stroke="url(#sssquiggly-grad)" fill="none" stroke-linecap="round" transform="matrix(1,0,0,1,-5,355.60921478271484)"><path d="M10,10C28.75,11.458333333333334,60.416666666666664,36.58333333333333,100,17C139.58333333333334,-2.583333333333332,158.33333333333331,-90.66666666666667,200,-84C241.66666666666669,-77.33333333333333,258.3333333333333,36.70833333333333,300,49C341.6666666666667,61.29166666666667,358.3333333333333,-20.416666666666668,400,-25C441.6666666666667,-29.583333333333332,458.3333333333333,26.166666666666668,500,27C541.6666666666666,27.833333333333332,558.3333333333334,-26.416666666666664,600,-21C641.6666666666666,-15.583333333333334,658.3333333333334,56.75,700,53C741.6666666666666,49.25,779.1666666666666,-19.833333333333332,800,-39"></path><path d="M10,10C28.75,11.458333333333334,60.416666666666664,36.58333333333333,100,17C139.58333333333334,-2.583333333333332,158.33333333333331,-90.66666666666667,200,-84C241.66666666666669,-77.33333333333333,258.3333333333333,36.70833333333333,300,49C341.6666666666667,61.29166666666667,358.3333333333333,-20.416666666666668,400,-25C441.6666666666667,-29.583333333333332,458.3333333333333,26.166666666666668,500,27C541.6666666666666,27.833333333333332,558.3333333333334,-26.416666666666664,600,-21C641.6666666666666,-15.583333333333334,658.3333333333334,56.75,700,53C741.6666666666666,49.25,779.1666666666666,-19.833333333333332,800,-39" transform="matrix(1,0,0,1,0,120)"></path><path d="M10,10C28.75,11.458333333333334,60.416666666666664,36.58333333333333,100,17C139.58333333333334,-2.583333333333332,158.33333333333331,-90.66666666666667,200,-84C241.66666666666669,-77.33333333333333,258.3333333333333,36.70833333333333,300,49C341.6666666666667,61.29166666666667,358.3333333333333,-20.416666666666668,400,-25C441.6666666666667,-29.583333333333332,458.3333333333333,26.166666666666668,500,27C541.6666666666666,27.833333333333332,558.3333333333334,-26.416666666666664,600,-21C641.6666666666666,-15.583333333333334,658.3333333333334,56.75,700,53C741.6666666666666,49.25,779.1666666666666,-19.833333333333332,800,-39" transform="matrix(1,0,0,1,0,110)"></path><path d="M10,10C28.75,11.458333333333334,60.416666666666664,36.58333333333333,100,17C139.58333333333334,-2.583333333333332,158.33333333333331,-90.66666666666667,200,-84C241.66666666666669,-77.33333333333333,258.3333333333333,36.70833333333333,300,49C341.6666666666667,61.29166666666667,358.3333333333333,-20.416666666666668,400,-25C441.6666666666667,-29.583333333333332,458.3333333333333,26.166666666666668,500,27C541.6666666666666,27.833333333333332,558.3333333333334,-26.416666666666664,600,-21C641.6666666666666,-15.583333333333334,658.3333333333334,56.75,700,53C741.6666666666666,49.25,779.1666666666666,-19.833333333333332,800,-39" transform="matrix(1,0,0,1,0,100)"></path><path d="M10,10C28.75,11.458333333333334,60.416666666666664,36.58333333333333,100,17C139.58333333333334,-2.583333333333332,158.33333333333331,-90.66666666666667,200,-84C241.66666666666669,-77.33333333333333,258.3333333333333,36.70833333333333,300,49C341.6666666666667,61.29166666666667,358.3333333333333,-20.416666666666668,400,-25C441.6666666666667,-29.583333333333332,458.3333333333333,26.166666666666668,500,27C541.6666666666666,27.833333333333332,558.3333333333334,-26.416666666666664,600,-21C641.6666666666666,-15.583333333333334,658.3333333333334,56.75,700,53C741.6666666666666,49.25,779.1666666666666,-19.833333333333332,800,-39" transform="matrix(1,0,0,1,0,90)"></path><path d="M10,10C28.75,11.458333333333334,60.416666666666664,36.58333333333333,100,17C139.58333333333334,-2.583333333333332,158.33333333333331,-90.66666666666667,200,-84C241.66666666666669,-77.33333333333333,258.3333333333333,36.70833333333333,300,49C341.6666666666667,61.29166666666667,358.3333333333333,-20.416666666666668,400,-25C441.6666666666667,-29.583333333333332,458.3333333333333,26.166666666666668,500,27C541.6666666666666,27.833333333333332,558.3333333333334,-26.416666666666664,600,-21C641.6666666666666,-15.583333333333334,658.3333333333334,56.75,700,53C741.6666666666666,49.25,779.1666666666666,-19.833333333333332,800,-39" transform="matrix(1,0,0,1,0,80)"></path><path d="M10,10C28.75,11.458333333333334,60.416666666666664,36.58333333333333,100,17C139.58333333333334,-2.583333333333332,158.33333333333331,-90.66666666666667,200,-84C241.66666666666669,-77.33333333333333,258.3333333333333,36.70833333333333,300,49C341.6666666666667,61.29166666666667,358.3333333333333,-20.416666666666668,400,-25C441.6666666666667,-29.583333333333332,458.3333333333333,26.166666666666668,500,27C541.6666666666666,27.833333333333332,558.3333333333334,-26.416666666666664,600,-21C641.6666666666666,-15.583333333333334,658.3333333333334,56.75,700,53C741.6666666666666,49.25,779.1666666666666,-19.833333333333332,800,-39" transform="matrix(1,0,0,1,0,70)"></path><path d="M10,10C28.75,11.458333333333334,60.416666666666664,36.58333333333333,100,17C139.58333333333334,-2.583333333333332,158.33333333333331,-90.66666666666667,200,-84C241.66666666666669,-77.33333333333333,258.3333333333333,36.70833333333333,300,49C341.6666666666667,61.29166666666667,358.3333333333333,-20.416666666666668,400,-25C441.6666666666667,-29.583333333333332,458.3333333333333,26.166666666666668,500,27C541.6666666666666,27.833333333333332,558.3333333333334,-26.416666666666664,600,-21C641.6666666666666,-15.583333333333334,658.3333333333334,56.75,700,53C741.6666666666666,49.25,779.1666666666666,-19.833333333333332,800,-39" transform="matrix(1,0,0,1,0,60)"></path><path d="M10,10C28.75,11.458333333333334,60.416666666666664,36.58333333333333,100,17C139.58333333333334,-2.583333333333332,158.33333333333331,-90.66666666666667,200,-84C241.66666666666669,-77.33333333333333,258.3333333333333,36.70833333333333,300,49C341.6666666666667,61.29166666666667,358.3333333333333,-20.416666666666668,400,-25C441.6666666666667,-29.583333333333332,458.3333333333333,26.166666666666668,500,27C541.6666666666666,27.833333333333332,558.3333333333334,-26.416666666666664,600,-21C641.6666666666666,-15.583333333333334,658.3333333333334,56.75,700,53C741.6666666666666,49.25,779.1666666666666,-19.833333333333332,800,-39" transform="matrix(1,0,0,1,0,50)"></path><path d="M10,10C28.75,11.458333333333334,60.416666666666664,36.58333333333333,100,17C139.58333333333334,-2.583333333333332,158.33333333333331,-90.66666666666667,200,-84C241.66666666666669,-77.33333333333333,258.3333333333333,36.70833333333333,300,49C341.6666666666667,61.29166666666667,358.3333333333333,-20.416666666666668,400,-25C441.6666666666667,-29.583333333333332,458.3333333333333,26.166666666666668,500,27C541.6666666666666,27.833333333333332,558.3333333333334,-26.416666666666664,600,-21C641.6666666666666,-15.583333333333334,658.3333333333334,56.75,700,53C741.6666666666666,49.25,779.1666666666666,-19.833333333333332,800,-39" transform="matrix(1,0,0,1,0,40)"></path><path d="M10,10C28.75,11.458333333333334,60.416666666666664,36.58333333333333,100,17C139.58333333333334,-2.583333333333332,158.33333333333331,-90.66666666666667,200,-84C241.66666666666669,-77.33333333333333,258.3333333333333,36.70833333333333,300,49C341.6666666666667,61.29166666666667,358.3333333333333,-20.416666666666668,400,-25C441.6666666666667,-29.583333333333332,458.3333333333333,26.166666666666668,500,27C541.6666666666666,27.833333333333332,558.3333333333334,-26.416666666666664,600,-21C641.6666666666666,-15.583333333333334,658.3333333333334,56.75,700,53C741.6666666666666,49.25,779.1666666666666,-19.833333333333332,800,-39" transform="matrix(1,0,0,1,0,30)"></path><path d="M10,10C28.75,11.458333333333334,60.416666666666664,36.58333333333333,100,17C139.58333333333334,-2.583333333333332,158.33333333333331,-90.66666666666667,200,-84C241.66666666666669,-77.33333333333333,258.3333333333333,36.70833333333333,300,49C341.6666666666667,61.29166666666667,358.3333333333333,-20.416666666666668,400,-25C441.6666666666667,-29.583333333333332,458.3333333333333,26.166666666666668,500,27C541.6666666666666,27.833333333333332,558.3333333333334,-26.416666666666664,600,-21C641.6666666666666,-15.583333333333334,658.3333333333334,56.75,700,53C741.6666666666666,49.25,779.1666666666666,-19.833333333333332,800,-39" transform="matrix(1,0,0,1,0,20)"></path><path d="M10,10C28.75,11.458333333333334,60.416666666666664,36.58333333333333,100,17C139.58333333333334,-2.583333333333332,158.33333333333331,-90.66666666666667,200,-84C241.66666666666669,-77.33333333333333,258.3333333333333,36.70833333333333,300,49C341.6666666666667,61.29166666666667,358.3333333333333,-20.416666666666668,400,-25C441.6666666666667,-29.583333333333332,458.3333333333333,26.166666666666668,500,27C541.6666666666666,27.833333333333332,558.3333333333334,-26.416666666666664,600,-21C641.6666666666666,-15.583333333333334,658.3333333333334,56.75,700,53C741.6666666666666,49.25,779.1666666666666,-19.833333333333332,800,-39" transform="matrix(1,0,0,1,0,10)"></path></g></svg>
